<svg xmlns="http://www.w3.org/2000/svg" xmlns:xlink="http://www.w3.org/1999/xlink" width="150" zoomAndPan="magnify" viewBox="0 0 112.5 37.5" height="50" preserveAspectRatio="xMidYMid meet" version="1.0"><defs><g/><clipPath id="921be47d18"><path d="M 0.492188 8 L 12 8 L 12 24 L 0.492188 24 Z M 0.492188 8 " clip-rule="nonzero"/></clipPath><clipPath id="254f15f8a4"><path d="M 90 8 L 111.511719 8 L 111.511719 24 L 90 24 Z M 90 8 " clip-rule="nonzero"/></clipPath></defs><g clip-path="url(#921be47d18)"><g fill="#ffffff" fill-opacity="1"><g transform="translate(0.493421, 23.892372)"><g><path d="M 0.15625 -12.4375 L 0.15625 -15.546875 L 11.078125 -15.546875 L 11.078125 -12.4375 L 7.390625 -12.4375 L 7.390625 0 L 3.84375 0 L 3.84375 -12.4375 Z M 0.15625 -12.4375 "/></g></g></g></g><g fill="#ffffff" fill-opacity="1"><g transform="translate(10.783391, 23.892372)"><g><path d="M 1.125 -15.546875 L 6.6875 -15.546875 C 8.1875 -15.546875 9.40625 -15.144531 10.34375 -14.34375 C 11.289062 -13.550781 11.765625 -12.410156 11.765625 -10.921875 C 11.765625 -9.785156 11.476562 -8.828125 10.90625 -8.046875 C 10.332031 -7.273438 9.554688 -6.734375 8.578125 -6.421875 L 13.921875 0 L 9.421875 0 L 4.671875 -6.140625 L 4.671875 0 L 1.125 0 Z M 4.671875 -8.65625 L 5.09375 -8.65625 C 5.414062 -8.65625 5.6875 -8.660156 5.90625 -8.671875 C 6.132812 -8.679688 6.394531 -8.722656 6.6875 -8.796875 C 6.976562 -8.867188 7.210938 -8.972656 7.390625 -9.109375 C 7.566406 -9.253906 7.71875 -9.457031 7.84375 -9.71875 C 7.96875 -9.988281 8.03125 -10.3125 8.03125 -10.6875 C 8.03125 -11.0625 7.96875 -11.378906 7.84375 -11.640625 C 7.71875 -11.910156 7.566406 -12.113281 7.390625 -12.25 C 7.210938 -12.382812 6.976562 -12.488281 6.6875 -12.5625 C 6.394531 -12.644531 6.132812 -12.691406 5.90625 -12.703125 C 5.6875 -12.710938 5.414062 -12.71875 5.09375 -12.71875 L 4.671875 -12.71875 Z M 4.671875 -8.65625 "/></g></g></g><g fill="#ffffff" fill-opacity="1"><g transform="translate(23.334894, 23.892372)"><g><path d="M 9.03125 -15.546875 L 15.296875 0 L 11.5 0 L 10.34375 -3.109375 L 4.421875 -3.109375 L 3.28125 0 L -0.53125 0 L 5.75 -15.546875 Z M 9.140625 -6.21875 L 7.40625 -10.734375 L 7.375 -10.734375 L 5.640625 -6.21875 Z M 9.140625 -6.21875 "/></g></g></g><g fill="#ffffff" fill-opacity="1"><g transform="translate(37.167933, 23.892372)"><g><path d="M 1.125 -15.546875 L 5.640625 -15.546875 C 7.796875 -15.546875 9.640625 -14.804688 11.171875 -13.328125 C 12.703125 -11.859375 13.46875 -10.007812 13.46875 -7.78125 C 13.46875 -5.539062 12.703125 -3.679688 11.171875 -2.203125 C 9.648438 -0.734375 7.804688 0 5.640625 0 L 1.125 0 Z M 4.671875 -3.171875 L 5.21875 -3.171875 C 6.507812 -3.171875 7.566406 -3.601562 8.390625 -4.46875 C 9.210938 -5.34375 9.628906 -6.441406 9.640625 -7.765625 C 9.640625 -9.078125 9.226562 -10.171875 8.40625 -11.046875 C 7.582031 -11.929688 6.519531 -12.375 5.21875 -12.375 L 4.671875 -12.375 Z M 4.671875 -3.171875 "/></g></g></g><g fill="#ffffff" fill-opacity="1"><g transform="translate(50.134048, 23.892372)"><g><path d="M 10.03125 -15.546875 L 10.03125 -12.4375 L 4.671875 -12.4375 L 4.671875 -9.34375 L 9.796875 -9.34375 L 9.796875 -6.234375 L 4.671875 -6.234375 L 4.671875 -3.109375 L 10.03125 -3.109375 L 10.03125 0 L 1.125 0 L 1.125 -15.546875 Z M 10.03125 -15.546875 "/></g></g></g><g fill="#ffffff" fill-opacity="1"><g transform="translate(60.122482, 23.892372)"><g><path d="M 4.671875 -9.640625 L 4.671875 0 L 1.125 0 L 1.125 -15.546875 L 4.671875 -15.546875 L 10.859375 -5.890625 L 10.890625 -5.890625 L 10.890625 -15.546875 L 14.4375 -15.546875 L 14.4375 0 L 10.890625 0 L 4.703125 -9.640625 Z M 4.671875 -9.640625 "/></g></g></g><g fill="#ffffff" fill-opacity="1"><g transform="translate(74.747054, 23.892372)"><g><path d="M 0.4375 -7.78125 C 0.4375 -10.03125 1.203125 -11.929688 2.734375 -13.484375 C 4.265625 -15.046875 6.109375 -15.828125 8.265625 -15.828125 C 10.441406 -15.828125 12.289062 -15.050781 13.8125 -13.5 C 15.332031 -11.945312 16.09375 -10.039062 16.09375 -7.78125 C 16.09375 -5.507812 15.34375 -3.597656 13.84375 -2.046875 C 12.351562 -0.492188 10.492188 0.28125 8.265625 0.28125 C 5.992188 0.28125 4.117188 -0.484375 2.640625 -2.015625 C 1.171875 -3.554688 0.4375 -5.476562 0.4375 -7.78125 Z M 4.265625 -7.78125 C 4.265625 -6.96875 4.390625 -6.222656 4.640625 -5.546875 C 4.890625 -4.878906 5.328125 -4.3125 5.953125 -3.84375 C 6.578125 -3.375 7.347656 -3.140625 8.265625 -3.140625 C 9.585938 -3.140625 10.582031 -3.59375 11.25 -4.5 C 11.925781 -5.40625 12.265625 -6.5 12.265625 -7.78125 C 12.265625 -9.050781 11.921875 -10.140625 11.234375 -11.046875 C 10.554688 -11.960938 9.566406 -12.421875 8.265625 -12.421875 C 6.984375 -12.421875 5.992188 -11.960938 5.296875 -11.046875 C 4.609375 -10.140625 4.265625 -9.050781 4.265625 -7.78125 Z M 4.265625 -7.78125 "/></g></g></g><g clip-path="url(#254f15f8a4)"><g fill="#ffffff" fill-opacity="1"><g transform="translate(90.332777, 23.892372)"><g><path d="M 13.0625 0 L 10.578125 -8.71875 L 8.078125 0 L 4.140625 0 L -0.28125 -15.546875 L 3.65625 -15.546875 L 6.3125 -4.875 L 6.40625 -4.875 L 9.234375 -15.546875 L 11.90625 -15.546875 L 14.734375 -4.875 L 14.828125 -4.875 L 17.484375 -15.546875 L 21.40625 -15.546875 L 16.984375 0 Z M 13.0625 0 "/></g></g></g></g></svg>